# xmcd
#
# Track frame offsets:
#	150
#	8942
#	21767
#	31482
#	42932
#	55537
#	68087
#	78990
#	88407
#	99992
#	109522
#	120492
#	131845
#	143442
#	154332
#	164927
#	178542
#	190985
#	201027
#	210525
#	219745
#	232905
#	244650
#	254907
#	265612
#
# Disc length: 3696 seconds
#
# Revision: 1
# Processed by: cddbd v1.4PL0 Copyright (c) Steve Scherf et al.
# Submitted via: EasyCDDAExtractor 6.0.0.1
#
DISCID=5f0e6e19
DTITLE=Doris Day - Happy Hits
DYEAR=2002
DGENRE=Blues
TTITLE0=When The Red, Red Robin Comes Bob, Bob, Bobbin' Along
TTITLE1=A Load Of Hay
TTITLE2=A Full Time Job
TTITLE3=Kay-Muleta
TTITLE4=The Comb And Paper Polka
TTITLE5=Love Me In The Daytime
TTITLE6=Two Hearts, Two Kisses (Make One Love)
TTITLE7=(There's A) Bluebird On Your Windowsill
TTITLE8=A Little Kiss Goodnight
TTITLE9=No
TTITLE10=Ooh Bang Jiggily Jang
TTITLE11=No Two Peaple
TTITLE12=Walk A Chalk Line
TTITLE13=Choo Choo Train (Ch-Ch-Foo)
TTITLE14=Save A Little Sunbeam (For a Rainy, Rainy Day)
TTITLE15=I Said My Pajanas (And Put On My Pray'rs)
TTITLE16=How It Lies, How It Lies, How It Lies!
TTITLE17=Quicksilver
TTITLE18=Candy Lips
TTITLE19=Twelve O'Clock Tonight
TTITLE20=I Didn't, Slip - I Wasn't Pushed - I Feel
TTITLE21=Powder Your Face With Sunshine (Smile!)
TTITLE22=A Purple Cow
TTITLE23=Ask Me!
TTITLE24=I Enjoy Being A Girl
EXTD=
EXTT0=
EXTT1=
EXTT2=
EXTT3=
EXTT4=
EXTT5=
EXTT6=
EXTT7=
EXTT8=
EXTT9=
EXTT10=
EXTT11=
EXTT12=
EXTT13=
EXTT14=
EXTT15=
EXTT16=
EXTT17=
EXTT18=
EXTT19=
EXTT20=
EXTT21=
EXTT22=
EXTT23=
EXTT24=
PLAYORDER=
